<?xml version="1.0" encoding="iso-8859-1"?>
<!-- Generator: Adobe Illustrator 19.0.0, SVG Export Plug-In . SVG Version: 6.00 Build 0)  -->
<svg version="1.1" id="Capa_1" xmlns="http://www.w3.org/2000/svg" xmlns:xlink="http://www.w3.org/1999/xlink" x="0px" y="0px"
	 viewBox="0 0 425.706 425.706" style="enable-background:new 0 0 425.706 425.706;" xml:space="preserve">
<g>
	<path d="M424.785,280.359c0.819-3.018-0.915-6.929-5.029-7.417c-4.164-0.494-8.345-0.732-12.525-1.036
		c-19.151-54.233-35.649-109.163-53.224-163.898c1.449-0.242,2.897-0.623,4.336-1.192c7.555-2.987,13.003-9.789,14.714-17.357
		c14.254-2.216,28.524-4.411,42.819-6.627c5.176-0.802,3.907-9.228-1.226-9.072c-14.306,0.431-28.541,1.39-42.716,2.78
		c-0.384-0.908-0.68-1.836-1.208-2.715c-5.74-9.549-21.431-14.427-30.904-7.682c-6.737,1.623-11.465,8.609-12.5,16.118
		c-27.356,4.241-54.546,9.68-81.67,15.614c-0.618-12.326-8.466-23.788-19.495-28.073c-0.504-8.315-0.952-16.636-1.596-24.93
		c-1.09-14.092-22.073-14.495-22.23,0c-0.094,8.516-0.01,17.022-0.046,25.536c-2.007,0.608-3.913,1.464-5.607,2.557
		c-10.88,7.016-14.822,21.613-11.539,33.679c0.447,1.637,1.16,3.076,1.84,4.538c-28.068,6.459-56.16,12.767-84.36,18.268
		c-3.056-3.841-7.859-6.943-12.992-8.464c-10.214-6.666-22.802,4.806-25.787,15.34c-10.8,1.72-21.607,3.375-32.46,4.678
		c-5.29,0.637-5.585,8.234,0,8.47c10.917,0.461,21.834-0.018,32.746-0.909c1.529,4.481,4.553,8.324,8.366,11.082
		C49.64,211.79,34.925,270.329,20.519,325.161c-5.183-0.32-10.344-0.551-15.542-0.932c-5.445-0.398-6.802,7.813-2.167,9.759
		c6.635,22.597,41.499,31.97,61.029,34.016c33.543,3.509,65.948-6.395,93.912-24.598c7.741-5.039,1.27-16.952-6.386-13.647
		c-0.401-0.009-0.802-0.018-1.206-0.03c-19.214-54.786-34.716-113.715-60.613-165.643c-0.157-0.314-0.401-0.434-0.635-0.563
		c0.397-0.07,0.788-0.052,1.188-0.148c9.507-2.276,15.996-11.361,16.541-20.751c29.826-5.728,59.485-13.904,88.736-20.851
		c2.117,1.65,4.363,3.119,6.813,4.197c0.373,75.908,1.546,151.769-0.554,227.759c-24.378,0.518-47.73,7.433-62.007,22.953
		c-0.73,0.459-1.268,1.002-1.642,1.771c-0.337,0.405-0.745,0.745-1.072,1.16c-2.62,3.332,0.374,7.525,4.297,6.088
		c11.358,7.889,41.222,3.839,52.125,4.126c31.129,0.819,62.269,1.15,93.401,1.724c7.529,0.14,9.602-9.841,3.696-13.641
		c-19.655-12.635-41.703-24.211-64.295-25.095c2.457-75.225,4.718-151.173,2.596-226.685c5.572-2.509,10.459-6.722,13.692-12.88
		c0.266-0.506,0.363-1.036,0.596-1.548c29.015-5.713,58.072-10.728,87.199-15.458c2.383,4.105,5.931,7.349,10.025,9.465
		c-20.279,53.967-33.566,111.505-51,166.455c-6.245,0.658-12.412,1.697-18.423,3.405c-2.241,0.635-2.62,3.478-1.133,4.895
		c-0.436,18.699,35.168,29.453,48.72,31.772c36.056,6.179,71.433-8.457,103.82-22.516
		C426.092,288.045,426.402,283.698,424.785,280.359z M136.824,329.402c-34.395-0.842-68.498-1.627-102.784-3.432
		c15.776-53.646,35.037-107.926,47.277-162.423c1.95,0.372,3.979,0.372,6.032,0.172c-0.474,0.373-0.832,0.919-0.706,1.592
		C97.055,220.784,119.33,275.579,136.824,329.402z M348.024,117.364c10.564,52.324,26.702,103.619,44.878,153.771
		c-17.267-0.541-34.597-0.096-51.84,0.191c-12.718,0.212-25.84-0.408-38.807,0C318.068,220.767,336.72,169.275,348.024,117.364z"/>
</g>
<g>
</g>
<g>
</g>
<g>
</g>
<g>
</g>
<g>
</g>
<g>
</g>
<g>
</g>
<g>
</g>
<g>
</g>
<g>
</g>
<g>
</g>
<g>
</g>
<g>
</g>
<g>
</g>
<g>
</g>
</svg>
