<?xml version="1.0" encoding="iso-8859-1"?>
<!-- Generator: Adobe Illustrator 19.0.0, SVG Export Plug-In . SVG Version: 6.00 Build 0)  -->
<svg version="1.1" id="Layer_1" xmlns="http://www.w3.org/2000/svg" xmlns:xlink="http://www.w3.org/1999/xlink" x="0px" y="0px"
	 viewBox="0 0 512 512" style="enable-background:new 0 0 512 512;" xml:space="preserve">
<path style="fill:#707487;" d="M39.202,504.493c-7.958,0.015-15.921-3.006-22.004-9.066c-12.166-12.12-12.203-31.807-0.083-43.973
	l106.796-107.197c12.119-12.166,31.808-12.203,43.973-0.083c12.166,12.12,12.203,31.807,0.083,43.973L61.172,495.344
	C55.112,501.428,47.16,504.478,39.202,504.493z"/>
<path style="fill:#5B5D6E;" d="M30.945,465.283L137.74,358.085c9.722-9.759,24.311-11.705,35.983-5.841
	c-1.463-2.912-3.404-5.644-5.839-8.07c-12.165-12.12-31.854-12.083-43.973,0.083L17.116,451.454
	c-12.121,12.166-12.084,31.853,0.083,43.973c2.407,2.398,5.111,4.312,7.989,5.758C19.342,489.552,21.25,475.013,30.945,465.283z"/>
<path style="fill:#D7DEED;" d="M327.46,7.507c-97.288,0.182-176.008,79.199-175.825,176.488
	c0.183,97.289,79.2,176.009,176.488,175.826c97.289-0.183,176.009-79.2,175.826-176.488C503.766,86.045,424.749,7.324,327.46,7.507z
	 M328.065,328.737c-80.122,0.151-145.195-64.679-145.346-144.801S247.398,38.742,327.519,38.591
	c80.122-0.151,145.195,64.679,145.346,144.801C473.016,263.513,408.186,328.586,328.065,328.737z"/>
<circle style="fill:#FF6464;" cx="231.827" cy="247.902" r="16.014"/>
<circle style="fill:#FFD782;" cx="287.767" cy="191.742" r="16.014"/>
<circle style="fill:#C3E678;" cx="351.984" cy="271.693" r="16.014"/>
<circle style="fill:#00D2FF;" cx="431.766" cy="119.407" r="16.014"/>
<g>
	<path style="fill:#707487;" d="M10.906,460.36c0.425-0.921,0.898-1.826,1.418-2.709C11.804,458.534,11.331,459.439,10.906,460.36z"
		/>
	<path style="fill:#707487;" d="M134.183,337.407c0.935-0.381,1.885-0.715,2.846-1.001
		C136.068,336.692,135.118,337.025,134.183,337.407z"/>
	<path style="fill:#707487;" d="M169.458,345.875c-0.502-0.581-1.021-1.151-1.573-1.702c-1.028-1.024-2.113-1.954-3.24-2.805
		c1.126,0.851,2.212,1.781,3.24,2.805C168.436,344.724,168.955,345.295,169.458,345.875z"/>
	<path style="fill:#707487;" d="M169.727,346.189c0.497,0.591,0.973,1.193,1.418,1.811
		C170.699,347.382,170.225,346.779,169.727,346.189z"/>
	<path style="fill:#707487;" d="M157.054,337.164c0.38,0.145,0.758,0.298,1.133,0.459
		C157.812,337.463,157.434,337.309,157.054,337.164z"/>
	<path style="fill:#707487;" d="M18.881,496.974c-0.574-0.492-1.137-1.002-1.682-1.544C17.744,495.971,18.309,496.48,18.881,496.974
		z"/>
	<path style="fill:#707487;" d="M20.998,498.649c-0.612-0.439-1.208-0.91-1.794-1.399C19.79,497.74,20.387,498.209,20.998,498.649z"
		/>
	<path style="fill:#707487;" d="M9.773,463.168c0.33-0.95,0.708-1.888,1.133-2.809C10.482,461.281,10.103,462.217,9.773,463.168z"/>
	<path style="fill:#707487;" d="M8.083,471.966c0.091-1.988,0.372-3.969,0.843-5.912C8.454,467.998,8.174,469.978,8.083,471.966z"/>
	<path style="fill:#707487;" d="M23.056,500.007c-0.679-0.41-1.344-0.85-1.996-1.316C21.712,499.159,22.377,499.597,23.056,500.007z
		"/>
	<path style="fill:#707487;" d="M123.911,344.257c3.03-3.042,6.533-5.325,10.273-6.85
		C130.443,338.932,126.941,341.215,123.911,344.257l-11.149,11.19l0,0L123.911,344.257z"/>
	<path style="fill:#707487;" d="M112.762,355.447l-95.647,96.007L112.762,355.447z"/>
	<path style="fill:#707487;" d="M8.083,471.966c-0.088,1.928,0.006,3.86,0.274,5.774C8.088,475.827,7.994,473.893,8.083,471.966z"/>
</g>
<path style="fill:#C7CFE2;" d="M171.209,348.088c0.955,1.332,1.794,2.721,2.514,4.156c-11.672-5.864-26.262-3.918-35.983,5.841
	l-11.148,11.19l30.144,30.144l11.231-11.273C178.855,377.217,179.925,360.218,171.209,348.088z"/>
<g>
	<path style="fill:#5B5D6E;" d="M23.067,500.014c-0.004-0.002-0.008-0.005-0.012-0.007C23.06,500.01,23.064,500.012,23.067,500.014z
		"/>
	<path style="fill:#5B5D6E;" d="M19.205,497.25c-0.108-0.091-0.216-0.184-0.323-0.276C18.989,497.066,19.095,497.159,19.205,497.25z
		"/>
	<path style="fill:#5B5D6E;" d="M10.956,486.545c-0.428-0.919-0.81-1.856-1.144-2.805C10.145,484.69,10.527,485.625,10.956,486.545z
		"/>
	<path style="fill:#5B5D6E;" d="M171.146,347.999c0.021,0.03,0.041,0.06,0.063,0.089
		C171.188,348.058,171.167,348.028,171.146,347.999z"/>
	<path style="fill:#5B5D6E;" d="M9.812,483.741c-0.333-0.949-0.621-1.911-0.859-2.883C9.192,481.83,9.478,482.792,9.812,483.741z"/>
	<path style="fill:#5B5D6E;" d="M21.059,498.691c-0.02-0.014-0.041-0.028-0.061-0.042C21.018,498.664,21.039,498.677,21.059,498.691
		z"/>
	<path style="fill:#5B5D6E;" d="M13.204,490.557c-0.571-0.861-1.094-1.745-1.57-2.646C12.11,488.812,12.634,489.696,13.204,490.557z
		"/>
	<path style="fill:#5B5D6E;" d="M169.458,345.875c0.09,0.104,0.181,0.208,0.27,0.313
		C169.639,346.084,169.547,345.98,169.458,345.875z"/>
	<path style="fill:#5B5D6E;" d="M147.372,335.141c-0.994-0.046-1.99-0.044-2.983,0.006
		C145.382,335.097,146.378,335.096,147.372,335.141z"/>
	<path style="fill:#5B5D6E;" d="M158.188,337.623c2.262,0.969,4.431,2.216,6.457,3.746
		C162.618,339.839,160.449,338.592,158.188,337.623z"/>
	<path style="fill:#5B5D6E;" d="M147.372,335.141c3.292,0.151,6.563,0.831,9.683,2.023
		C153.934,335.972,150.664,335.292,147.372,335.141z"/>
	<path style="fill:#5B5D6E;" d="M8.952,480.858c-0.253-1.03-0.449-2.072-0.597-3.119C8.503,478.787,8.699,479.828,8.952,480.858z"/>
	<path style="fill:#5B5D6E;" d="M13.204,490.557c1.142,1.722,2.473,3.355,3.994,4.87c0.001,0.001,0.001,0.001,0.002,0.002
		c0-0.001-0.001-0.001-0.002-0.002C15.677,493.912,14.346,492.278,13.204,490.557z"/>
</g>
<path style="fill:#AFB9D2;" d="M112.762,355.447l13.828,13.828l11.148-11.19c9.722-9.759,24.311-11.705,35.983-5.841
	c-0.721-1.434-1.56-2.824-2.514-4.156c-0.021-0.03-0.041-0.06-0.063-0.089c-0.445-0.618-0.922-1.22-1.418-1.811
	c-0.089-0.105-0.179-0.209-0.27-0.313c-0.501-0.581-1.021-1.151-1.573-1.702c-1.028-1.024-2.113-1.954-3.24-2.805
	c-2.026-1.53-4.195-2.777-6.457-3.746c-0.375-0.161-0.753-0.314-1.133-0.459c-3.12-1.192-6.391-1.872-9.683-2.023
	c-0.994-0.046-1.99-0.044-2.983,0.006c-2.484,0.123-4.956,0.542-7.36,1.259c-0.961,0.286-1.911,0.621-2.846,1.001
	c-3.74,1.525-7.243,3.808-10.273,6.85L112.762,355.447z"/>
<path d="M457.534,53.665C422.858,19.058,376.783,0,327.799,0h-0.352C226.174,0.19,143.937,82.736,144.127,184.009
	c0.087,46.278,17.183,89.917,48.3,123.781l-25.755,25.851c-6.139-3.927-13.274-6.039-20.735-6.039
	c-10.339,0-20.051,4.033-27.346,11.357L11.798,446.156c-7.278,7.305-11.275,17.005-11.255,27.316
	c0.02,10.31,4.053,19.997,11.358,27.273C19.187,508.003,28.862,512,39.144,512c0.004,0,0.067,0,0.071,0
	c10.31-0.019,19.996-4.053,27.274-11.358l106.795-107.196c7.277-7.305,11.274-17.005,11.255-27.316
	c-0.015-8.032-2.476-15.68-7.012-22.111l25.496-25.592c34.049,31.58,78.08,48.901,124.763,48.901h0.352
	c49.059-0.092,95.145-19.283,129.769-54.038c34.624-34.754,53.642-80.912,53.55-129.97
	C511.364,134.321,492.214,88.276,457.534,53.665z M162.648,382.849L55.854,490.045c-4.447,4.464-10.366,6.929-16.666,6.941
	l-0.044,7.507v-7.507c-6.284,0-12.196-2.442-16.648-6.877c-4.464-4.446-6.928-10.365-6.94-16.665
	c-0.012-6.301,2.43-12.229,6.878-16.693L129.23,349.554c4.458-4.475,10.392-6.939,16.71-6.939c6.284,0,12.196,2.441,16.647,6.877
	c4.463,4.446,6.928,10.364,6.94,16.665C169.538,372.458,167.095,378.385,162.648,382.849z M447.269,302.694
	c-31.794,31.914-74.113,49.535-119.162,49.62h-0.324c-92.815,0-168.469-75.514-168.644-168.334
	c-0.173-92.994,75.34-168.792,168.335-168.967h0.324c92.816,0,168.469,75.514,168.644,168.334
	C496.527,228.394,479.064,270.779,447.269,302.694z"/>
<path d="M431.72,95.89c-6.283,0.012-12.185,2.47-16.619,6.921c-4.434,4.45-6.869,10.362-6.858,16.644
	c0.012,6.277,2.503,11.981,6.537,16.197l-59.11,112.823c-1.217-0.194-2.465-0.298-3.736-0.298c-2.832,0.005-5.547,0.513-8.061,1.439
	l-36.29-45.188c2.42-3.763,3.718-8.144,3.709-12.724c-0.024-12.947-10.575-23.478-23.565-23.478
	c-6.283,0.012-12.185,2.47-16.619,6.921c-4.434,4.45-6.869,10.362-6.858,16.644c0.007,3.756,0.906,7.308,2.487,10.459
	c-0.089,0.081-0.182,0.157-0.268,0.244l-23.976,24.067c-0.088,0.088-0.164,0.183-0.247,0.274c-3.154-1.566-6.705-2.453-10.463-2.453
	c-12.97,0.024-23.501,10.595-23.477,23.565c0.024,12.946,10.575,23.477,23.52,23.477c0.005,0,0.04,0,0.045,0
	c12.97-0.024,23.501-10.595,23.477-23.565c-0.007-3.756-0.906-7.307-2.488-10.458c0.09-0.082,0.183-0.157,0.269-0.244l23.976-24.067
	c0.086-0.086,0.161-0.179,0.241-0.268c3.145,1.563,6.683,2.447,10.423,2.447c0.005,0,0.04,0,0.045,0
	c2.797-0.005,5.517-0.497,8.067-1.432l36.294,45.194c-2.357,3.672-3.727,8.034-3.719,12.712
	c0.024,12.946,10.575,23.477,23.521,23.477c0.005,0,0.04,0,0.045,0c12.97-0.024,23.501-10.595,23.477-23.565
	c-0.012-6.275-2.502-11.978-6.539-16.193l59.109-112.821c1.204,0.191,2.437,0.293,3.694,0.293c0.005,0,0.04,0,0.045,0
	c6.283-0.012,12.184-2.469,16.619-6.92c4.434-4.45,6.869-10.362,6.858-16.644C455.261,106.421,444.71,95.89,431.72,95.89z
	 M231.843,256.409l-0.017,7.507v-7.507c-4.682,0-8.498-3.809-8.507-8.491c-0.009-4.692,3.8-8.516,8.508-8.525
	c4.682,0,8.498,3.809,8.507,8.491C240.342,252.577,236.534,256.4,231.843,256.409z M287.787,200.253l-0.017,7.507v-7.507
	c-4.682,0-8.498-3.809-8.507-8.491c-0.004-2.273,0.877-4.411,2.481-6.021c1.604-1.61,3.738-2.499,6.027-2.503
	c4.682,0,8.499,3.81,8.508,8.492c0.004,2.273-0.877,4.41-2.481,6.02C292.194,199.36,290.06,200.249,287.787,200.253z
	 M351.995,280.205l-0.017,7.507v-7.507c-4.682,0-8.499-3.809-8.508-8.491c-0.009-4.692,3.8-8.516,8.509-8.525
	c4.682,0,8.498,3.809,8.507,8.491C360.495,276.372,356.686,280.196,351.995,280.205z M437.792,125.415
	c-1.604,1.609-3.738,2.499-6.011,2.503l-0.017,7.507v-7.507c-4.682,0-8.499-3.809-8.508-8.491c-0.004-2.273,0.877-4.411,2.481-6.021
	c1.604-1.61,3.738-2.499,6.027-2.503c4.682,0,8.499,3.81,8.508,8.492C440.276,121.668,439.395,123.805,437.792,125.415z"/>
<g>
</g>
<g>
</g>
<g>
</g>
<g>
</g>
<g>
</g>
<g>
</g>
<g>
</g>
<g>
</g>
<g>
</g>
<g>
</g>
<g>
</g>
<g>
</g>
<g>
</g>
<g>
</g>
<g>
</g>
</svg>
