<?xml version="1.0" encoding="iso-8859-1"?>
<!-- Generator: Adobe Illustrator 19.0.0, SVG Export Plug-In . SVG Version: 6.00 Build 0)  -->
<svg version="1.1" id="Layer_1" xmlns="http://www.w3.org/2000/svg" xmlns:xlink="http://www.w3.org/1999/xlink" x="0px" y="0px"
	 viewBox="0 0 295.239 295.239" style="enable-background:new 0 0 295.239 295.239;" xml:space="preserve">
<g>
	<g>
		<rect x="52.381" y="104.762" style="fill:#F9BA48;" width="190.476" height="109.524"/>
		<path style="fill:#333333;" d="M261.905,100c0-4.662-2.281-8.771-5.748-11.381l19.233-23.081c1.71,0.729,3.59,1.129,5.562,1.129
			c7.876,0,14.286-6.41,14.286-14.286s-6.41-14.286-14.286-14.286s-14.286,6.41-14.286,14.286c0,2.424,0.662,4.671,1.733,6.676
			L246.18,85.714H47.619c-7.876,0-14.286,6.41-14.286,14.286v123.81H0v19.048c0,7.876,6.41,14.286,14.286,14.286h266.667
			c7.876,0,14.286-6.41,14.286-14.286V223.81h-33.333V100H261.905z M280.952,47.619c2.624,0,4.762,2.138,4.762,4.762
			s-2.138,4.762-4.762,4.762s-4.762-2.138-4.762-4.762S278.328,47.619,280.952,47.619z M42.857,100c0-2.624,2.138-4.762,4.762-4.762
			h190.629l-56.495,67.795c-1.71-0.729-3.59-1.129-5.562-1.129c-3.843,0-7.319,1.543-9.89,4.019l-33.143-16.571
			c0.071-0.576,0.176-1.143,0.176-1.733c0-7.876-6.41-14.286-14.286-14.286s-14.286,6.41-14.286,14.286
			c0,2.2,0.538,4.257,1.433,6.119l-23.881,23.881c-1.867-0.89-3.924-1.429-6.124-1.429c-7.876,0-14.286,6.41-14.286,14.286
			c0,7.876,6.41,14.286,14.286,14.286s14.286-6.41,14.286-14.286c0-2.2-0.538-4.257-1.433-6.119l23.881-23.881
			c1.867,0.89,3.924,1.429,6.124,1.429c3.843,0,7.319-1.543,9.89-4.019l33.143,16.571c-0.071,0.576-0.176,1.143-0.176,1.733
			c0,7.876,6.41,14.286,14.286,14.286s14.286-6.41,14.286-14.286c0-2.424-0.662-4.671-1.733-6.676l61.276-73.533
			c1.386,0.838,2.362,2.29,2.362,4.019v123.81H42.857V100z M180.952,176.19c0,2.624-2.138,4.762-4.762,4.762
			s-4.762-2.138-4.762-4.762s2.138-4.762,4.762-4.762C178.814,171.429,180.952,173.567,180.952,176.19z M114.286,147.619
			c0-2.624,2.138-4.762,4.762-4.762s4.762,2.138,4.762,4.762s-2.138,4.762-4.762,4.762S114.286,150.243,114.286,147.619z
			 M80.952,190.476c0,2.624-2.138,4.762-4.762,4.762s-4.762-2.138-4.762-4.762s2.138-4.762,4.762-4.762
			S80.952,187.852,80.952,190.476z M285.714,233.333v9.524c0,2.624-2.138,4.762-4.762,4.762H14.286
			c-2.624,0-4.762-2.138-4.762-4.762v-9.524h23.81h228.571H285.714z"/>
	</g>
</g>
<g>
</g>
<g>
</g>
<g>
</g>
<g>
</g>
<g>
</g>
<g>
</g>
<g>
</g>
<g>
</g>
<g>
</g>
<g>
</g>
<g>
</g>
<g>
</g>
<g>
</g>
<g>
</g>
<g>
</g>
</svg>
